<svg xmlns="http://www.w3.org/2000/svg" version="1.1" xmlns:xlink="http://www.w3.org/1999/xlink" xmlns:svgjs="http://svgjs.dev/svgjs" width="1000" height="1000" viewBox="0 0 1000 1000"><rect width="1000" height="1000" fill="#ffffff"></rect><g transform="matrix(0.7,0,0,0.7,150,150.00000000000006)"><svg viewBox="0 0 280 280" data-background-color="#ffffff" preserveAspectRatio="xMidYMid meet" height="1000" width="1000" xmlns="http://www.w3.org/2000/svg" xmlns:xlink="http://www.w3.org/1999/xlink"><g id="tight-bounds" transform="matrix(1,0,0,1,0,-2.842170943040401e-14)"><svg viewBox="0 0 280 280" height="280" width="280"><g><svg viewBox="0 0 280 280" height="280" width="280"><g><svg viewBox="0 0 280 280" height="280" width="280"><g id="textblocktransform"><svg viewBox="0 0 280 280" height="280" width="280" id="textblock"><g><svg viewBox="0 0 280 280" height="280" width="280"><g transform="matrix(1,0,0,1,108.45357513311876,90.50252531694167)"><svg viewBox="0 0 63.09284973376247 98.99494936611666" height="98.99494936611666" width="63.09284973376247"><g><svg xmlns="http://www.w3.org/2000/svg" xmlns:xlink="http://www.w3.org/1999/xlink" version="1.1" x="0" y="0" viewBox="26.027999877929688 12.385000228881836 47.94599914550781 75.22899627685547" enable-background="new 0 0 100 100" xml:space="preserve" height="98.99494936611666" width="63.09284973376247" class="icon-o-0" data-fill-palette-color="accent" id="o-0"><g fill="#35185a" data-fill-palette-color="accent"><path fill="#35185a" d="M36.555 12.385c-5.805 0-10.527 4.723-10.527 10.528 0 5.805 4.723 10.527 10.527 10.527s10.527-4.723 10.527-10.527C47.082 17.108 42.359 12.385 36.555 12.385z" data-fill-palette-color="accent"></path><path fill="#35185a" d="M36.555 66.559c-5.805 0-10.527 4.723-10.527 10.528 0 5.805 4.723 10.527 10.527 10.527s10.527-4.723 10.527-10.527C47.082 71.282 42.359 66.559 36.555 66.559z" data-fill-palette-color="accent"></path><path fill="#35185a" d="M36.555 40.176c-5.805 0-10.527 4.723-10.527 10.528 0 5.805 4.723 10.527 10.527 10.527s10.527-4.723 10.527-10.527C47.082 44.899 42.359 40.176 36.555 40.176z" data-fill-palette-color="accent"></path><path fill="#35185a" d="M63.447 12.385c-5.805 0-10.527 4.723-10.527 10.528 0 5.805 4.723 10.527 10.527 10.527s10.527-4.723 10.527-10.527C73.975 17.108 69.252 12.385 63.447 12.385z" data-fill-palette-color="accent"></path><path fill="#35185a" d="M63.447 44.926c-2.604 0-4.721 2.117-4.721 4.72 0 2.604 2.117 4.722 4.721 4.722 2.602 0 4.721-2.118 4.721-4.722C68.168 47.043 66.049 44.926 63.447 44.926z" data-fill-palette-color="accent"></path><path fill="#35185a" d="M63.447 71.309c-2.604 0-4.721 2.117-4.721 4.72 0 2.604 2.117 4.722 4.721 4.722 2.602 0 4.721-2.118 4.721-4.722C68.168 73.426 66.049 71.309 63.447 71.309z" data-fill-palette-color="accent"></path></g></svg></g></svg></g><g><path d="M32.305 103.678c-0.423 1.232-0.905 2.299-1.446 3.202-0.546 0.894-1.197 1.862-1.955 2.901v0c-0.501 0.622-0.825 1.104-0.971 1.448v0l-6.332-2.49 0.779-2.272 4.827 0.982c0.515-0.273 1.077-0.814 1.685-1.624 0.608-0.81 1.1-1.762 1.475-2.855v0c0.617-1.797 0.684-3.302 0.201-4.515-0.483-1.213-1.435-2.063-2.855-2.55v0c-0.924-0.317-1.806-0.335-2.647-0.055-0.835 0.283-1.635 0.763-2.402 1.441-0.76 0.68-1.713 1.646-2.86 2.897v0c-1.046 1.123-2.045 2.069-2.997 2.838-0.952 0.769-2.068 1.338-3.347 1.707-1.279 0.369-2.641 0.305-4.086-0.19v0c-1.301-0.447-2.347-1.195-3.138-2.247-0.791-1.051-1.257-2.335-1.397-3.852-0.14-1.516 0.091-3.151 0.693-4.904v0c0.375-1.094 0.788-2.03 1.238-2.81 0.459-0.784 1.013-1.662 1.662-2.633v0c0.325-0.415 0.57-0.781 0.735-1.097v0l5.893 2.265-0.744 2.168-4.617-0.794c-0.315 0.159-0.706 0.573-1.174 1.241-0.47 0.675-0.855 1.449-1.155 2.322v0c-0.561 1.634-0.643 2.99-0.248 4.067 0.396 1.077 1.248 1.84 2.555 2.289v0c0.943 0.324 1.822 0.341 2.638 0.052 0.816-0.289 1.577-0.737 2.284-1.345 0.711-0.599 1.741-1.594 3.09-2.985v0c1.264-1.287 2.357-2.314 3.281-3.079 0.931-0.769 1.994-1.339 3.189-1.709 1.201-0.368 2.465-0.324 3.79 0.132v0c1.257 0.431 2.344 1.194 3.261 2.289 0.923 1.097 1.513 2.49 1.769 4.179 0.25 1.687 0.025 3.549-0.674 5.585z" fill="#35185a" data-fill-palette-color="primary"></path><path d="M48.052 74.645c-2.152 2.987-4.534 4.611-7.147 4.875-2.613 0.263-5.594-0.812-8.942-3.224v0l-11.184-8.057-1.934 1.899-1.52-1.095 5.867-8.144 1.52 1.096-1.474 2.881 11.491 8.279c2.766 1.992 5.113 2.934 7.043 2.825 1.929-0.109 3.56-1.088 4.892-2.937v0c1.332-1.849 1.681-3.703 1.045-5.56-0.631-1.863-2.187-3.688-4.666-5.475v0l-11.678-8.413-2.243 2.278-1.52-1.095 5.115-7.1 1.52 1.095-1.23 2.492 11.548 8.319c3.17 2.284 4.995 4.741 5.475 7.372 0.48 2.63-0.179 5.194-1.978 7.689z" fill="#35185a" data-fill-palette-color="primary"></path><path d="M63.804 53.478l-14.293-18.48-2.598 1.43-1.146-1.482 3.949-3.055c0.715-0.553 1.397-1.127 2.046-1.721v0c1.006-0.904 1.985-1.724 2.936-2.46v0c2.882-2.204 5.323-3.24 7.324-3.107 2.006 0.128 3.828 1.252 5.467 3.37v0c1.228 1.587 1.925 3.249 2.091 4.985 0.172 1.732-0.153 3.407-0.976 5.026-0.823 1.619-2.075 3.079-3.756 4.38v0c-0.578 0.447-1.176 0.885-1.795 1.313-0.614 0.433-0.998 0.692-1.151 0.776v0l5.055 6.536 4.318-2.823 1.128 1.458-9.712 7.513-1.129-1.459zM60.64 42.821c0.625-0.332 1.613-1.021 2.964-2.065v0c1.561-1.207 2.467-2.664 2.718-4.371 0.242-1.707-0.473-3.641-2.144-5.801v0c-1.317-1.703-2.69-2.598-4.118-2.686-1.425-0.083-3.038 0.573-4.842 1.968v0c-0.631 0.488-1.273 1.048-1.926 1.679v0c-0.404 0.379-0.674 0.622-0.811 0.728v0z" fill="#35185a" data-fill-palette-color="primary"></path><path d="M91.266 35.913l-8.649-21.702-2.892 0.659-0.693-1.741 4.638-1.848c0.839-0.335 1.653-0.698 2.441-1.091v0c1.216-0.592 2.383-1.111 3.5-1.556v0c3.378-1.325 6.01-1.648 7.897-0.969 1.893 0.676 3.335 2.258 4.326 4.745v0c0.743 1.864 0.955 3.653 0.638 5.368-0.312 1.712-1.086 3.233-2.323 4.563-1.237 1.33-2.843 2.388-4.818 3.176v0c-0.679 0.271-1.375 0.526-2.087 0.767-0.71 0.247-1.15 0.39-1.32 0.43v0l3.059 7.675 4.928-1.524 0.683 1.713-11.407 4.545-0.682-1.712zM91.16 24.797c0.692-0.147 1.832-0.537 3.418-1.169v0c1.833-0.731 3.106-1.881 3.817-3.452 0.703-1.575 0.549-3.631-0.462-6.168v0c-0.797-2-1.87-3.239-3.22-3.717-1.347-0.472-3.079-0.286-5.195 0.558v0c-0.741 0.295-1.512 0.656-2.315 1.084v0c-0.493 0.254-0.819 0.412-0.98 0.476v0z" fill="#35185a" data-fill-palette-color="primary"></path><path d="M122.511 26.595l-2.352-23.244-3.081-0.149-0.188-1.864 10.729-1.086 0.189 1.864-3.653 0.831 2.353 23.243 9.604-1.312 1.576-6.501 2.305 0.107-0.441 8.61-19.922 2.016-0.185-1.834z" fill="#35185a" data-fill-palette-color="primary"></path><path d="M159.689 27.248l1.624-8.487-5.54-16.018-2.121-0.903 0.352-1.84 9.623 1.841-0.352 1.841-2.993-0.106 3.306 10.881 0.648 3.027 1.858-2.547 6.796-8.949-2.939-1.029 0.353-1.84 8.418 1.611-0.352 1.84-2.484-0.008-10.474 12.943-1.624 8.487 4.055 1.192-0.347 1.811-12.246-2.343 0.346-1.811z" fill="#35185a" data-fill-palette-color="primary"></path><path d="M202.068 43.1l13.364-19.162-2.141-2.053 1.072-1.537 4.096 2.857c0.741 0.517 1.492 0.996 2.253 1.438v0c1.163 0.69 2.238 1.379 3.225 2.067v0c2.964 2.092 4.682 4.112 5.154 6.061 0.477 1.953-0.05 4.027-1.582 6.223v0c-1.148 1.646-2.525 2.808-4.132 3.486-1.601 0.682-3.297 0.872-5.089 0.571-1.791-0.301-3.558-1.06-5.302-2.277v0c-0.6-0.418-1.196-0.858-1.789-1.32-0.597-0.457-0.959-0.745-1.085-0.866v0l-4.726 6.777 3.984 3.277-1.055 1.512-10.071-7.024 1.055-1.512zM211.292 36.896c0.504 0.497 1.456 1.234 2.857 2.211v0c1.619 1.129 3.28 1.558 4.983 1.288 1.702-0.279 3.334-1.539 4.896-3.78v0c1.232-1.766 1.676-3.344 1.332-4.733-0.347-1.384-1.455-2.728-3.324-4.032v0c-0.654-0.456-1.38-0.902-2.178-1.337v0c-0.483-0.272-0.795-0.457-0.937-0.556v0z" fill="#35185a" data-fill-palette-color="primary"></path><path d="M223.196 62.885l1.445-1.145 2.226 2.217 18.316-14.503-1.436-2.6 1.445-1.145 3.057 3.86c0.433 0.547 1.062 1.261 1.886 2.142v0c0.858 0.923 1.503 1.658 1.937 2.205v0c2.285 2.886 3.448 5.313 3.489 7.28 0.037 1.963-0.945 3.736-2.946 5.32v0c-1.396 1.105-2.98 1.728-4.75 1.867-1.767 0.145-3.395-0.295-4.884-1.319v0c0.162 0.889 0.051 1.926-0.334 3.111-0.388 1.18-0.997 2.739-1.827 4.676v0c-0.617 1.48-1.052 2.583-1.307 3.311-0.255 0.727-0.296 1.264-0.124 1.61v0l0.621 1.378-1.446 1.145-3.217-4.064c-0.252-0.318-0.193-0.94 0.174-1.867 0.368-0.927 1-2.275 1.896-4.044v0c0.996-1.932 1.743-3.52 2.242-4.762 0.504-1.247 0.682-2.227 0.534-2.94v0c-1.662-2.099-2.642-3.353-2.941-3.761v0l-7.892 6.249 2.019 3.143-1.446 1.145zM241.593 63.128c0.994 1.255 2.189 1.919 3.586 1.992 1.406 0.073 2.921-0.533 4.546-1.82v0c1.433-1.134 2.238-2.37 2.418-3.707 0.17-1.338-0.459-2.908-1.887-4.71v0c-0.499-0.63-1.037-1.23-1.614-1.798v0c-0.351-0.358-0.574-0.596-0.669-0.717v0l-9.127 7.227c0.214 0.313 0.686 0.931 1.417 1.853v0z" fill="#35185a" data-fill-palette-color="primary"></path><path d="M246.535 101.341c-0.934-2.374-1.177-4.599-0.73-6.674 0.448-2.075 1.503-3.922 3.165-5.54 1.66-1.624 3.808-2.954 6.442-3.99v0c2.677-1.053 5.23-1.471 7.657-1.256 2.427 0.216 4.542 0.991 6.344 2.325 1.805 1.339 3.143 3.116 4.013 5.329v0c1.43 3.636 1.376 6.866-0.161 9.692-1.538 2.825-4.335 5.036-8.391 6.631v0c-2.727 1.073-5.324 1.494-7.792 1.266-2.474-0.227-4.632-1.02-6.473-2.381-1.836-1.363-3.194-3.164-4.074-5.402zM271.524 92.037c-0.888-2.257-2.571-3.651-5.05-4.183-2.486-0.529-5.627-0.047-9.424 1.447v0c-3.494 1.374-6.011 3.096-7.553 5.167-1.542 2.07-1.863 4.249-0.963 6.537v0c0.878 2.232 2.59 3.608 5.136 4.127 2.546 0.519 5.718 0.032 9.514-1.461v0c3.518-1.384 6.017-3.091 7.496-5.122 1.47-2.035 1.752-4.205 0.844-6.512z" fill="#35185a" data-fill-palette-color="primary"></path><path d="M11.751 189.753c-0.428-1.244-0.705-2.396-0.831-3.456-0.117-1.056-0.198-2.23-0.242-3.521v0c0.015-0.813-0.026-1.403-0.125-1.77v0l6.594-1.943 0.788 2.29-4.454 2.218c-0.243 0.54-0.356 1.324-0.339 2.352 0.02 1.019 0.22 2.078 0.598 3.178v0c0.627 1.822 1.508 3.065 2.643 3.728 1.143 0.668 2.431 0.755 3.863 0.262v0c0.936-0.322 1.649-0.855 2.138-1.6 0.495-0.747 0.835-1.626 1.02-2.639 0.186-1.013 0.346-2.375 0.481-4.086v0c0.136-1.544 0.345-2.919 0.625-4.126 0.28-1.207 0.817-2.354 1.609-3.442 0.792-1.088 1.917-1.882 3.374-2.384v0c1.319-0.454 2.619-0.508 3.898-0.16 1.285 0.345 2.455 1.08 3.51 2.207 1.053 1.12 1.885 2.566 2.495 4.338v0c0.378 1.099 0.632 2.101 0.76 3.006 0.124 0.913 0.227 1.956 0.308 3.13v0c0.001 0.534 0.035 0.979 0.101 1.335v0l-6.106 1.859-0.756-2.196 4.174-2.237c0.157-0.321 0.212-0.895 0.166-1.723-0.046-0.827-0.221-1.684-0.526-2.57v0c-0.569-1.652-1.345-2.784-2.328-3.394-0.989-0.608-2.141-0.686-3.454-0.234v0c-0.955 0.329-1.667 0.862-2.137 1.6-0.47 0.738-0.799 1.568-0.988 2.49-0.197 0.918-0.4 2.351-0.607 4.299v0c-0.211 1.815-0.447 3.316-0.707 4.501-0.26 1.186-0.752 2.297-1.477 3.333-0.723 1.043-1.757 1.796-3.102 2.259v0c-1.269 0.437-2.61 0.501-4.023 0.193-1.417-0.299-2.751-1.042-4.002-2.227-1.253-1.192-2.234-2.815-2.941-4.87z" fill="#35185a" data-fill-palette-color="primary"></path><path d="M30.645 224.282c-2.177-3.017-2.974-5.819-2.389-8.403 0.581-2.59 2.563-5.107 5.946-7.549v0l11.299-8.153-1.209-2.459 1.536-1.108 5.931 8.219-1.535 1.108-2.288-2.318-11.606 8.375c-2.791 2.014-4.443 3.96-4.956 5.838-0.515 1.887-0.097 3.766 1.252 5.635v0c1.345 1.864 3.014 2.791 5.005 2.78 1.987-0.017 4.231-0.927 6.731-2.731v0l11.792-8.51-1.463-2.878 1.536-1.108 5.173 7.169-1.535 1.108-1.993-1.978-11.671 8.422c-3.201 2.31-6.136 3.277-8.808 2.902-2.675-0.38-4.925-1.834-6.748-4.361z" fill="#35185a" data-fill-palette-color="primary"></path><path d="M53.74 245.834l14.432-18.688-2.063-2.172 1.158-1.499 3.991 3.083c0.726 0.56 1.461 1.082 2.205 1.564v0c1.148 0.752 2.201 1.498 3.158 2.237v0c2.892 2.267 4.527 4.394 4.906 6.383 0.384 1.992-0.251 4.059-1.903 6.199v0c-1.239 1.604-2.686 2.711-4.341 3.322-1.655 0.611-3.38 0.719-5.174 0.324-1.789-0.391-3.535-1.244-5.239-2.56v0c-0.578-0.447-1.158-0.919-1.738-1.418-0.575-0.495-0.925-0.802-1.05-0.924v0l-5.099 6.603 3.854 3.505-1.139 1.475-9.821-7.584 1.139-1.476zM63.361 240.028c0.48 0.53 1.401 1.322 2.764 2.374v0c1.583 1.222 3.243 1.736 4.98 1.541 1.732-0.199 3.441-1.39 5.126-3.572v0c1.328-1.72 1.851-3.289 1.57-4.706-0.276-1.414-1.327-2.826-3.152-4.235v0c-0.642-0.495-1.353-0.982-2.135-1.46v0c-0.474-0.299-0.78-0.501-0.916-0.607v0z" fill="#35185a" data-fill-palette-color="primary"></path><path d="M85.176 265.658l8.728-21.939-2.581-1.521 0.7-1.759 4.686 1.864c0.852 0.339 1.702 0.638 2.55 0.897v0c1.311 0.407 2.529 0.834 3.652 1.281v0c3.404 1.383 5.562 2.978 6.474 4.785 0.918 1.81 0.877 3.971-0.123 6.483v0c-0.749 1.883-1.835 3.346-3.258 4.389-1.423 1.043-3.051 1.622-4.885 1.736-1.827 0.117-3.741-0.222-5.741-1.018v0c-0.679-0.27-1.366-0.565-2.061-0.884-0.689-0.317-1.11-0.517-1.264-0.6v0l-3.083 7.752 4.67 2.308-0.689 1.732-11.53-4.587 0.689-1.731zM92.827 257.428c0.608 0.378 1.711 0.885 3.31 1.52v0c1.858 0.739 3.596 0.776 5.212 0.111 1.61-0.668 2.925-2.283 3.944-4.846v0c0.803-2.019 0.874-3.671 0.213-4.956-0.655-1.283-2.054-2.351-4.196-3.204v0c-0.753-0.3-1.571-0.571-2.454-0.815v0c-0.538-0.157-0.888-0.267-1.048-0.331v0z" fill="#35185a" data-fill-palette-color="primary"></path><path d="M120.851 276.057l2.366-23.493-3.018-0.765 0.19-1.884 10.848 1.093-0.189 1.884-3.785 0.08-2.366 23.492 9.772 0.644 2.87-6.122 2.267 0.569-2.183 8.445-20.131-2.028 0.187-1.854z" fill="#35185a" data-fill-palette-color="primary"></path><path d="M162.825 275.181l-1.645-8.575-11.185-12.966-2.335-0.059-0.357-1.86 9.73-1.866 0.356 1.86-2.85 1.013 7.174 8.986 1.727 2.601 0.808-3.088 3.036-10.944-3.141 0.136-0.356-1.86 8.496-1.63 0.357 1.86-2.332 0.914-4.995 16.07 1.645 8.574 4.248-0.388 0.351 1.83-12.372 2.373-0.351-1.83z" fill="#35185a" data-fill-palette-color="primary"></path><path d="M211.302 256.798l-13.481-19.384-2.692 1.313-1.081-1.554 4.14-2.88c0.753-0.524 1.471-1.068 2.155-1.632v0c1.063-0.869 2.091-1.648 3.084-2.339v0c3.032-2.076 5.553-2.996 7.563-2.759 2.016 0.233 3.795 1.46 5.339 3.68v0c1.157 1.664 1.778 3.377 1.862 5.139 0.084 1.762-0.331 3.44-1.247 5.032-0.911 1.588-2.25 2.997-4.017 4.226v0c-0.6 0.417-1.225 0.828-1.875 1.231-0.645 0.4-1.044 0.641-1.197 0.723v0l4.763 6.849 4.502-2.621 1.064 1.53-10.187 7.085-1.064-1.53zM208.66 245.876c0.65-0.299 1.682-0.939 3.095-1.921v0c1.642-1.142 2.631-2.571 2.968-4.286 0.331-1.712-0.29-3.699-1.865-5.963v0c-1.241-1.784-2.579-2.755-4.017-2.913-1.432-0.162-3.094 0.416-4.987 1.732v0c-0.665 0.463-1.343 0.995-2.033 1.597v0c-0.428 0.362-0.713 0.593-0.855 0.692v0z" fill="#35185a" data-fill-palette-color="primary"></path><path d="M239.426 236.574l-1.46-1.159 1.662-2.702-18.492-14.681-2.223 2.014-1.46-1.159 3.093-3.895c0.442-0.557 1.002-1.342 1.68-2.356v0c0.707-1.051 1.281-1.854 1.724-2.412v0c2.314-2.914 4.431-4.619 6.35-5.113 1.925-0.491 3.9 0.068 5.924 1.675v0c1.405 1.116 2.381 2.531 2.929 4.246 0.551 1.71 0.492 3.415-0.179 5.114v0c0.837-0.37 1.886-0.5 3.147-0.39 1.252 0.112 2.925 0.35 5.02 0.715v0c1.601 0.27 2.789 0.446 3.565 0.527 0.775 0.081 1.31-0.004 1.602-0.255v0l1.214-0.92 1.459 1.159-3.253 4.098c-0.252 0.317-0.876 0.403-1.872 0.257-1.005-0.145-2.479-0.458-4.421-0.939v0c-2.132-0.531-3.868-0.899-5.206-1.105-1.338-0.206-2.342-0.154-3.011 0.155v0c-1.686 2.123-2.696 3.374-3.031 3.753v0l7.97 6.327 2.633-2.707 1.459 1.159zM235.425 218.419c1.008-1.27 1.387-2.602 1.137-3.997-0.25-1.395-1.197-2.745-2.841-4.05v0c-1.452-1.153-2.853-1.659-4.204-1.518-1.356 0.137-2.757 1.116-4.203 2.937v0c-0.504 0.635-0.969 1.301-1.395 1.998v0c-0.272 0.429-0.456 0.703-0.551 0.822v0l9.219 7.319c0.256-0.28 0.754-0.886 1.494-1.817v0z" fill="#35185a" data-fill-palette-color="primary"></path><path d="M266.737 193.021c-0.947 2.398-2.302 4.21-4.064 5.436-1.76 1.219-3.815 1.855-6.164 1.906-2.343 0.054-4.846-0.445-7.51-1.497v0c-2.707-1.069-4.882-2.517-6.525-4.345-1.647-1.836-2.677-3.868-3.09-6.096-0.405-2.232-0.165-4.466 0.718-6.703v0c1.45-3.671 3.716-6.019 6.8-7.045 3.084-1.025 6.674-0.729 10.772 0.889v0c2.75 1.086 4.96 2.562 6.63 4.429 1.668 1.873 2.714 3.947 3.138 6.222 0.423 2.275 0.189 4.543-0.705 6.804zM241.853 182.66c-0.903 2.287-0.622 4.48 0.842 6.58 1.47 2.102 4.124 3.911 7.962 5.426v0c3.529 1.393 6.578 1.858 9.147 1.394 2.566-0.473 4.303-1.862 5.214-4.167v0c0.893-2.262 0.579-4.461-0.942-6.598-1.527-2.139-4.21-3.966-8.047-5.481v0c-3.554-1.403-6.576-1.864-9.066-1.383-2.487 0.49-4.19 1.9-5.11 4.229z" fill="#35185a" data-fill-palette-color="primary"></path><path d="M3.641 143.12c0-5.951 4.824-10.775 10.775-10.775 5.951 0 10.775 4.824 10.774 10.775 0 5.951-4.824 10.775-10.774 10.775-5.951 0-10.775-4.824-10.775-10.775z" fill="#35185a" data-fill-palette-color="primary"></path><path d="M254.81 143.12c0-5.951 4.824-10.775 10.774-10.775 5.951 0 10.775 4.824 10.775 10.775 0 5.951-4.824 10.775-10.775 10.775-5.951 0-10.775-4.824-10.774-10.775z" fill="#35185a" data-fill-palette-color="primary"></path></g></svg></g></svg></g></svg></g></svg></g><defs></defs></svg><rect width="280" height="280" fill="none" stroke="none" visibility="hidden"></rect></g></svg></g></svg>